<svg id="Слой_1" data-name="Слой 1" xmlns="http://www.w3.org/2000/svg" viewBox="0 0 237 40"><defs><style>.cls-1,.cls-2{fill:#f2e500;}.cls-1,.cls-3,.cls-4,.cls-5,.cls-6,.cls-8,.cls-9{fill-rule:evenodd;}.cls-4{fill:#fff;}.cls-5,.cls-7{fill:#0fa3d1;}.cls-6{fill:#625d7b;}.cls-8{fill:#e42221;}.cls-10,.cls-9{fill:#027fc2;}</style></defs><path class="cls-1" d="M181.42,25.71v7h-2.07a16.46,16.46,0,0,1-4.32-.48,6.09,6.09,0,0,1-2.82-1.55,6.41,6.41,0,0,1-1.52-2.91,18.36,18.36,0,0,1-.46-4.46V8.25h7.65v14.3A9.14,9.14,0,0,0,178,24.2a1.65,1.65,0,0,0,.43.94,1.43,1.43,0,0,0,.87.45,7,7,0,0,0,1.44.12Z"/><polygon class="cls-1" points="184.99 8.25 192.64 8.25 192.64 32.72 184.99 32.72 184.99 8.25 184.99 8.25"/><path class="cls-1" d="M204.59,32.72h-7.5V18.8a12.87,12.87,0,0,1,.71-4.34,10.46,10.46,0,0,1,2-3.51,9.66,9.66,0,0,1,3.23-2.38,10.11,10.11,0,0,1,4.32-.88,10.56,10.56,0,0,1,4.29.83,8.82,8.82,0,0,1,3.14,2.31,9.82,9.82,0,0,1,1.93,3.51,14.84,14.84,0,0,1,.65,4.46v.26h-7.54V18.8a4.84,4.84,0,0,0-.54-2.55,2.11,2.11,0,0,0-1.94-.88,2.61,2.61,0,0,0-2,.83,3.66,3.66,0,0,0-.76,2.53v2.13h8v6.47h-8v5.39Z"/><path class="cls-1" d="M237,17.8v4.38h-6.46a2.89,2.89,0,0,0-1.63.44,1.31,1.31,0,0,0-.64,1.2c0,1.21,1,1.8,3.12,1.8H237v7.1h-6.69c-3.18,0-5.59-.63-7.23-1.91s-2.47-3.25-2.47-5.9a9.89,9.89,0,0,1,.31-2.55A6.56,6.56,0,0,1,222.35,20a7,7,0,0,1-1.31-2,5.54,5.54,0,0,1-.43-2,7.67,7.67,0,0,1,.78-3.6,6.42,6.42,0,0,1,2.07-2.37,8.51,8.51,0,0,1,3.07-1.28,16.92,16.92,0,0,1,3.78-.4H237v7h-6.36a4.36,4.36,0,0,0-1.84.27,1,1,0,0,0-.53.95,1,1,0,0,0,.56,1,4.13,4.13,0,0,0,1.85.31Z"/><path class="cls-2" d="M181.42,25.71v7h-2.07a16.46,16.46,0,0,1-4.32-.48,6.09,6.09,0,0,1-2.82-1.55,6.41,6.41,0,0,1-1.52-2.91,18.36,18.36,0,0,1-.46-4.46V8.25h7.65v14.3A9.14,9.14,0,0,0,178,24.2a1.65,1.65,0,0,0,.43.94,1.43,1.43,0,0,0,.87.45,7,7,0,0,0,1.44.12Z"/><polygon class="cls-2" points="184.99 8.25 192.64 8.25 192.64 32.72 184.99 32.72 184.99 8.25 184.99 8.25"/><path class="cls-2" d="M204.59,32.72h-7.5V18.8a12.87,12.87,0,0,1,.71-4.34,10.46,10.46,0,0,1,2-3.51,9.66,9.66,0,0,1,3.23-2.38,10.11,10.11,0,0,1,4.32-.88,10.56,10.56,0,0,1,4.29.83,8.82,8.82,0,0,1,3.14,2.31,9.82,9.82,0,0,1,1.93,3.51,14.84,14.84,0,0,1,.65,4.46v.26h-7.54V18.8a4.84,4.84,0,0,0-.54-2.55,2.11,2.11,0,0,0-1.94-.88,2.61,2.61,0,0,0-2,.83,3.66,3.66,0,0,0-.76,2.53v2.13h8v6.47h-8v5.39Z"/><path class="cls-2" d="M237,17.8v4.38h-6.46a2.89,2.89,0,0,0-1.63.44,1.31,1.31,0,0,0-.64,1.2c0,1.21,1,1.8,3.12,1.8H237v7.1h-6.69c-3.18,0-5.59-.63-7.23-1.91s-2.47-3.25-2.47-5.9a9.89,9.89,0,0,1,.31-2.55A6.56,6.56,0,0,1,222.35,20a7,7,0,0,1-1.31-2,5.54,5.54,0,0,1-.43-2,7.67,7.67,0,0,1,.78-3.6,6.42,6.42,0,0,1,2.07-2.37,8.51,8.51,0,0,1,3.07-1.28,16.92,16.92,0,0,1,3.78-.4H237v7h-6.36a4.36,4.36,0,0,0-1.84.27,1,1,0,0,0-.53.95,1,1,0,0,0,.56,1,4.13,4.13,0,0,0,1.85.31Z"/><path class="cls-3" d="M20.67,4.36a5,5,0,0,0-1.58,3.75,4.43,4.43,0,0,0,.07.81H14a1.35,1.35,0,0,0-.66.17,1,1,0,0,0-.58.55l0-.07L9,15.27H9l-.09.19,0,.07v0a8.36,8.36,0,0,0-.68,3A2.87,2.87,0,0,0,9.27,21a4.1,4.1,0,0,0,3,1c-.31.67-.76,1.67-.91,2H5.66a1.36,1.36,0,0,0-.83.25A12,12,0,0,0,.92,28a3.74,3.74,0,0,0-.49,1.78,3.29,3.29,0,0,0,1.24,2.48,1.38,1.38,0,0,0,1,.37H16.88a1.33,1.33,0,0,0,.83-.27,1.47,1.47,0,0,0,.52-.61c.14-.34.8-1.9,1.22-2.87l3.81,6.93,0,0a1.56,1.56,0,0,0,.4.41,1.3,1.3,0,0,0,.57.23H24.2c2.84.71,4.8.87,6,.47a2.51,2.51,0,0,0,1.87-1.78l0,.07a2.22,2.22,0,0,0,.16-.88,4.17,4.17,0,0,0-.39-1.66l0-.07-.05,0-.06-.09.07.1s-5.4-9.86-6.18-11.27l.55.75,0,0a1.3,1.3,0,0,0,.54.47,1.38,1.38,0,0,0,.66.14h6.44a1.47,1.47,0,0,0,1-.38h0v0a5.64,5.64,0,0,0,2.1-3.93.34.34,0,0,0,0-.1.28.28,0,0,0,0-.09,5.11,5.11,0,0,0-2.17-3.85h0a1.58,1.58,0,0,0-.93-.34H30.31c-.2-.26-1.56-2-1.87-2.45a5.18,5.18,0,0,0,1.21-3.4,5.19,5.19,0,0,0-1.51-3.75L28,4.23H28a5.16,5.16,0,0,0-3.61-1.41,5,5,0,0,0-3.69,1.54Z"/><path class="cls-4" d="M24.37,2.4a5.79,5.79,0,0,0-2.18.42,5.53,5.53,0,0,0-1.82,1.25,5.36,5.36,0,0,0-1.69,4v.38H14a1.69,1.69,0,0,0-.85.23,1.38,1.38,0,0,0-.74.67L8.65,15l0,0,0,0-.09.17,0,.06,0,.06,0,0a8,8,0,0,0-.7,3.43,3.56,3.56,0,0,0,.37,1.42A3,3,0,0,0,9,21.28a4.14,4.14,0,0,0,2.65,1.06l-.53,1.15H5.65a1.72,1.72,0,0,0-1.07.33,12.14,12.14,0,0,0-4,4h0a3.91,3.91,0,0,0-.49,2.56,3.82,3.82,0,0,0,1.33,2.2,1.76,1.76,0,0,0,1.26.49H16.87A1.75,1.75,0,0,0,18,32.72h0a1.83,1.83,0,0,0,.68-.8l.87-2.07L22.88,36l0,0,0,0,0,0a1.62,1.62,0,0,0,.51.5h0a1.82,1.82,0,0,0,.67.29,19.58,19.58,0,0,0,4.47.68,5.66,5.66,0,0,0,1.71-.23,3,3,0,0,0,2.15-2A2.92,2.92,0,0,0,32.63,34a5.51,5.51,0,0,0-.42-1.47l-.12-.28,0-.05L27,23.1l.28,0h6.45A2,2,0,0,0,35,22.64l0,0,0,0c1.52-1.48,2.25-2.89,2.22-4.33A5.46,5.46,0,0,0,35,14l0,0h0a2,2,0,0,0-1.19-.42H30.53l-1.55-2a5.55,5.55,0,0,0,1.09-3.4,5.74,5.74,0,0,0-.41-2.21,5.35,5.35,0,0,0-1.21-1.84l-.25-.25,0,0A5.52,5.52,0,0,0,24.37,2.4ZM19.51,8.11A4.54,4.54,0,0,1,21,4.66a4.59,4.59,0,0,1,3.4-1.42,4.73,4.73,0,0,1,3.44,1.39l0,0a4.78,4.78,0,0,1,1.39,3.45A4.78,4.78,0,0,1,27.9,11.5l2.21,2.88h3.62a1.24,1.24,0,0,1,.69.25,4.68,4.68,0,0,1,2,3.53v.18a5.26,5.26,0,0,1-2,3.65,1.11,1.11,0,0,1-.73.28H27.29a.93.93,0,0,1-.47-.1.88.88,0,0,1-.37-.32l-1.31-1.8-.38.7,0,.07.42.76L31.32,32.7l.1.17a3.86,3.86,0,0,1,.37,1.49,2,2,0,0,1-.14.72,2.09,2.09,0,0,1-1.6,1.48,4.93,4.93,0,0,1-1.45.18,18.09,18.09,0,0,1-4.3-.66,1.13,1.13,0,0,1-.39-.17,1,1,0,0,1-.3-.32l-4.22-7.67L17.84,31.6a1,1,0,0,1-.39.43.86.86,0,0,1-.58.19H2.63A.92.92,0,0,1,2,32,2.89,2.89,0,0,1,.84,29.78a3.61,3.61,0,0,1,.44-1.59A11.57,11.57,0,0,1,5.06,24.5a.89.89,0,0,1,.58-.18h6l.92-2,0-.1.35-.77-.75,0a3.6,3.6,0,0,1-2.67-.87,2.49,2.49,0,0,1-1-2.14,8.15,8.15,0,0,1,.64-2.81c0-.06,0-.11.11-.2l3.76-5.67a.63.63,0,0,1,.38-.33A.91.91,0,0,1,14,9.34h5.72a4.61,4.61,0,0,1-.16-1.23ZM13,8.74h0Zm24.24,9.5M23.46,36.62h0Z"/><path class="cls-5" d="M24.48,5.34h-.11a2.51,2.51,0,0,0-1.91.82h0a2.57,2.57,0,0,0-.83,1.95,2.42,2.42,0,0,0,.51,1.54s0,0,.05,0l0,0a.91.91,0,0,1,.11.16s.05.08.1.11,0,0,.05.05a2.6,2.6,0,0,0,1.91.78h.12Z"/><path class="cls-5" d="M24.48,10.84a2.83,2.83,0,0,0,1.39-.42s.05,0,.07,0l.41-.34a2.75,2.75,0,0,0,.79-1.94,2.65,2.65,0,0,0-.77-1.95l0,0a2.9,2.9,0,0,0-1.87-.79Z"/><path class="cls-6" d="M18.29,25.12h0l.06-.14"/><path class="cls-7" d="M24.26,5.34a2.33,2.33,0,0,1,.53,0c0,.18-.11,5.45-.11,5.45a1.67,1.67,0,0,1-.42,0C24.24,10.69,24.26,5.34,24.26,5.34Z"/><polygon class="cls-8" points="5.88 26.5 5.99 26.41 6.23 26.41 6.23 30.12 5.71 30.12 5.88 26.5"/><path class="cls-2" d="M22.9,19.71H16.08l-2.8,6.11a1.25,1.25,0,0,1-1,.59H6a14.5,14.5,0,0,0-2,1.71,4.1,4.1,0,0,0-.9,1.28.86.86,0,0,0,0,.63.41.41,0,0,0,0,.09H16.19l2.09-5a1.15,1.15,0,0,1,1-.7,1.07,1.07,0,0,1,.91.6L23,30.12l2.23,4a16.51,16.51,0,0,0,3.18.49,2.75,2.75,0,0,0,1.19-.16s.05,0,0-.15a2.3,2.3,0,0,0-.4-1.08c-.39-.66-6.38-11.52-6.38-11.52s-.61-.84-.29-1.43C22.69,20.08,22.9,19.71,22.9,19.71Z"/><path class="cls-7" d="M14.52,11.44H25.15l2.53,3.23,1.06,1.39a1.1,1.1,0,0,0,.77.42h3.82a3.85,3.85,0,0,1,.85,1.17,1.19,1.19,0,0,1,.09.94,3.33,3.33,0,0,1-.47,1c-.26.34-.49.59-.49.59H27.85L26,17.62a1.23,1.23,0,0,0-1-.6,1.07,1.07,0,0,0-1,.64L22.9,19.71H16.08l1.65-3.57.35-.76a1.12,1.12,0,0,0-.18-1.15,1.23,1.23,0,0,0-1-.32,1,1,0,0,0-.77.62L14,19.21a9,9,0,0,1-1.41.19,4,4,0,0,1-1-.07c-.07,0-.53-.1-.63-.31a1.44,1.44,0,0,1-.17-.75A7.27,7.27,0,0,1,11,16.88l.11-.29Z"/><path class="cls-9" d="M59.25,8v7.29A9.21,9.21,0,0,0,58.1,15a4.29,4.29,0,0,0-1-.15,1.5,1.5,0,0,0-1.06.4,1.23,1.23,0,0,0-.43.93A4.84,4.84,0,0,0,56,18c.3.71.66,1.45,1,2.21a22.76,22.76,0,0,1,1,2.32,5.87,5.87,0,0,1,.47,2.18q0,4.15-2.24,6.31c-1.48,1.45-3.69,2.16-6.64,2.16a6.26,6.26,0,0,1-1-.09c-.36,0-.92-.15-1.66-.32V25.52a6.78,6.78,0,0,0,1.24.34,6.65,6.65,0,0,0,1.17.13,1.41,1.41,0,0,0,1.06-.39,1.24,1.24,0,0,0,.37-.9,4.25,4.25,0,0,0-.46-1.61l-1-2.19c-.36-.77-.7-1.59-1-2.44A7.07,7.07,0,0,1,48,16a8.56,8.56,0,0,1,2.12-6.25c1.42-1.43,3.5-2.15,6.27-2.15A11,11,0,0,1,59.25,8Z"/><path class="cls-10" d="M59.25,8v7.29A9.21,9.21,0,0,0,58.1,15a4.29,4.29,0,0,0-1-.15,1.5,1.5,0,0,0-1.06.4,1.23,1.23,0,0,0-.43.93A4.84,4.84,0,0,0,56,18c.3.71.66,1.45,1,2.21a22.76,22.76,0,0,1,1,2.32,5.87,5.87,0,0,1,.47,2.18q0,4.15-2.24,6.31c-1.48,1.45-3.69,2.16-6.64,2.16a6.26,6.26,0,0,1-1-.09c-.36,0-.92-.15-1.66-.32V25.52a6.78,6.78,0,0,0,1.24.34,6.65,6.65,0,0,0,1.17.13,1.41,1.41,0,0,0,1.06-.39,1.24,1.24,0,0,0,.37-.9,4.25,4.25,0,0,0-.46-1.61l-1-2.19c-.36-.77-.7-1.59-1-2.44A7.07,7.07,0,0,1,48,16a8.56,8.56,0,0,1,2.12-6.25c1.42-1.43,3.5-2.15,6.27-2.15A11,11,0,0,1,59.25,8Z"/><path class="cls-9" d="M70.78,25.82v-7.1a10.3,10.3,0,0,0,2.87-.35,1.5,1.5,0,0,0,1-1.28A1.52,1.52,0,0,0,74,15.85a2.94,2.94,0,0,0-1.87-.49H70.81V32.72H63.16V8.25h9.11a14.22,14.22,0,0,1,4.13.57,9.49,9.49,0,0,1,3.25,1.65,7.71,7.71,0,0,1,2.17,2.71,8.22,8.22,0,0,1,.78,3.7q0,4.62-2.77,6.77C78,25.09,74.07,25.82,70.78,25.82Z"/><path class="cls-10" d="M70.78,25.82v-7.1a10.3,10.3,0,0,0,2.87-.35,1.5,1.5,0,0,0,1-1.28A1.52,1.52,0,0,0,74,15.85a2.94,2.94,0,0,0-1.87-.49H70.81V32.72H63.16V8.25h9.11a14.22,14.22,0,0,1,4.13.57,9.49,9.49,0,0,1,3.25,1.65,7.71,7.71,0,0,1,2.17,2.71,8.22,8.22,0,0,1,.78,3.7q0,4.62-2.77,6.77C78,25.09,74.07,25.82,70.78,25.82Z"/><path class="cls-9" d="M98.38,33.31a12.47,12.47,0,0,1-4.88-1,13.1,13.1,0,0,1-4.08-2.73,13.5,13.5,0,0,1-2.8-4.06,12.43,12.43,0,0,1,0-10,13.42,13.42,0,0,1,2.8-4.07A13,13,0,0,1,93.5,8.71a12,12,0,0,1,4.88-1,12.29,12.29,0,0,1,5,1,12.59,12.59,0,0,1,4.09,2.77,13.14,13.14,0,0,1,3.74,9.19,12.12,12.12,0,0,1-1,4.91,12.86,12.86,0,0,1-11.8,7.73Zm0-7.21a4.55,4.55,0,0,0,1.94-.43,5.16,5.16,0,0,0,1.63-1.14A5.35,5.35,0,0,0,103,22.77a5.8,5.8,0,0,0,.41-2.24,6.24,6.24,0,0,0-.39-2.24A5.67,5.67,0,0,0,102,16.5a5.31,5.31,0,0,0-1.61-1.18,4.57,4.57,0,0,0-2-.43,4.65,4.65,0,0,0-2,.43,5,5,0,0,0-1.59,1.18,5.84,5.84,0,0,0-1.07,1.79,6.63,6.63,0,0,0,0,4.48,5.28,5.28,0,0,0,1.09,1.76,5,5,0,0,0,1.61,1.14,4.53,4.53,0,0,0,1.92.43Z"/><path class="cls-10" d="M98.38,33.31a12.47,12.47,0,0,1-4.88-1,13.1,13.1,0,0,1-4.08-2.73,13.5,13.5,0,0,1-2.8-4.06,12.43,12.43,0,0,1,0-10,13.42,13.42,0,0,1,2.8-4.07A13,13,0,0,1,93.5,8.71a12,12,0,0,1,4.88-1,12.29,12.29,0,0,1,5,1,12.59,12.59,0,0,1,4.09,2.77,13.14,13.14,0,0,1,3.74,9.19,12.12,12.12,0,0,1-1,4.91,12.86,12.86,0,0,1-11.8,7.73Zm0-7.21a4.55,4.55,0,0,0,1.94-.43,5.16,5.16,0,0,0,1.63-1.14A5.35,5.35,0,0,0,103,22.77a5.8,5.8,0,0,0,.41-2.24,6.24,6.24,0,0,0-.39-2.24A5.67,5.67,0,0,0,102,16.5a5.31,5.31,0,0,0-1.61-1.18,4.57,4.57,0,0,0-2-.43,4.65,4.65,0,0,0-2,.43,5,5,0,0,0-1.59,1.18,5.84,5.84,0,0,0-1.07,1.79,6.63,6.63,0,0,0,0,4.48,5.28,5.28,0,0,0,1.09,1.76,5,5,0,0,0,1.61,1.14,4.53,4.53,0,0,0,1.92.43Z"/><path class="cls-9" d="M122.72,32.72h-7.58V8.25H124a19,19,0,0,1,4,.42,10.11,10.11,0,0,1,3.32,1.38,6.76,6.76,0,0,1,2.24,2.48,7.54,7.54,0,0,1,.82,3.69,9,9,0,0,1-.5,2.93,4.64,4.64,0,0,1-1.74,2.39,5.26,5.26,0,0,1,1.94,2.53,12.09,12.09,0,0,1,.44,3.52v5.13h-7.76V27.59a3.61,3.61,0,0,0-.49-2.21,2.09,2.09,0,0,0-1.71-.6h-1.89V19.3h1.89a2.08,2.08,0,0,0,1.58-.49,2.11,2.11,0,0,0,.46-1.48,1.91,1.91,0,0,0-.51-1.48,3.31,3.31,0,0,0-2.11-.46h-1.32V32.72Z"/><path class="cls-10" d="M122.72,32.72h-7.58V8.25H124a19,19,0,0,1,4,.42,10.11,10.11,0,0,1,3.32,1.38,6.76,6.76,0,0,1,2.24,2.48,7.54,7.54,0,0,1,.82,3.69,9,9,0,0,1-.5,2.93,4.64,4.64,0,0,1-1.74,2.39,5.26,5.26,0,0,1,1.94,2.53,12.09,12.09,0,0,1,.44,3.52v5.13h-7.76V27.59a3.61,3.61,0,0,0-.49-2.21,2.09,2.09,0,0,0-1.71-.6h-1.89V19.3h1.89a2.08,2.08,0,0,0,1.58-.49,2.11,2.11,0,0,0,.46-1.48,1.91,1.91,0,0,0-.51-1.48,3.31,3.31,0,0,0-2.11-.46h-1.32V32.72Z"/><polygon class="cls-9" points="156.13 8.25 156.13 15.36 150.83 15.36 150.83 32.72 143.17 32.72 143.17 15.36 137.88 15.36 137.88 8.25 156.13 8.25 156.13 8.25"/><polygon class="cls-10" points="156.13 8.25 156.13 15.36 150.83 15.36 150.83 32.72 143.17 32.72 143.17 15.36 137.88 15.36 137.88 8.25 156.13 8.25 156.13 8.25"/><path class="cls-9" d="M59.25,8v7.29A9.21,9.21,0,0,0,58.1,15a4.29,4.29,0,0,0-1-.15,1.5,1.5,0,0,0-1.06.4,1.23,1.23,0,0,0-.43.93A4.84,4.84,0,0,0,56,18c.3.71.66,1.45,1,2.21a22.76,22.76,0,0,1,1,2.32,5.87,5.87,0,0,1,.47,2.18q0,4.15-2.24,6.31c-1.48,1.45-3.69,2.16-6.64,2.16a6.26,6.26,0,0,1-1-.09c-.36,0-.92-.15-1.66-.32V25.52a6.78,6.78,0,0,0,1.24.34,6.65,6.65,0,0,0,1.17.13,1.41,1.41,0,0,0,1.06-.39,1.24,1.24,0,0,0,.37-.9,4.25,4.25,0,0,0-.46-1.61l-1-2.19c-.36-.77-.7-1.59-1-2.44A7.07,7.07,0,0,1,48,16a8.56,8.56,0,0,1,2.12-6.25c1.42-1.43,3.5-2.15,6.27-2.15A11,11,0,0,1,59.25,8Z"/><path class="cls-10" d="M59.25,8v7.29A9.21,9.21,0,0,0,58.1,15a4.29,4.29,0,0,0-1-.15,1.5,1.5,0,0,0-1.06.4,1.23,1.23,0,0,0-.43.93A4.84,4.84,0,0,0,56,18c.3.71.66,1.45,1,2.21a22.76,22.76,0,0,1,1,2.32,5.87,5.87,0,0,1,.47,2.18q0,4.15-2.24,6.31c-1.48,1.45-3.69,2.16-6.64,2.16a6.26,6.26,0,0,1-1-.09c-.36,0-.92-.15-1.66-.32V25.52a6.78,6.78,0,0,0,1.24.34,6.65,6.65,0,0,0,1.17.13,1.41,1.41,0,0,0,1.06-.39,1.24,1.24,0,0,0,.37-.9,4.25,4.25,0,0,0-.46-1.61l-1-2.19c-.36-.77-.7-1.59-1-2.44A7.07,7.07,0,0,1,48,16a8.56,8.56,0,0,1,2.12-6.25c1.42-1.43,3.5-2.15,6.27-2.15A11,11,0,0,1,59.25,8Z"/><path class="cls-9" d="M70.78,25.82v-7.1a10.3,10.3,0,0,0,2.87-.35,1.5,1.5,0,0,0,1-1.28A1.52,1.52,0,0,0,74,15.85a2.94,2.94,0,0,0-1.87-.49H70.81V32.72H63.16V8.25h9.11a14.22,14.22,0,0,1,4.13.57,9.49,9.49,0,0,1,3.25,1.65,7.71,7.71,0,0,1,2.17,2.71,8.22,8.22,0,0,1,.78,3.7q0,4.62-2.77,6.77C78,25.09,74.07,25.82,70.78,25.82Z"/><path class="cls-10" d="M70.78,25.82v-7.1a10.3,10.3,0,0,0,2.87-.35,1.5,1.5,0,0,0,1-1.28A1.52,1.52,0,0,0,74,15.85a2.94,2.94,0,0,0-1.87-.49H70.81V32.72H63.16V8.25h9.11a14.22,14.22,0,0,1,4.13.57,9.49,9.49,0,0,1,3.25,1.65,7.71,7.71,0,0,1,2.17,2.71,8.22,8.22,0,0,1,.78,3.7q0,4.62-2.77,6.77C78,25.09,74.07,25.82,70.78,25.82Z"/><path class="cls-9" d="M98.38,33.31a12.47,12.47,0,0,1-4.88-1,13.1,13.1,0,0,1-4.08-2.73,13.5,13.5,0,0,1-2.8-4.06,12.43,12.43,0,0,1,0-10,13.42,13.42,0,0,1,2.8-4.07A13,13,0,0,1,93.5,8.71a12,12,0,0,1,4.88-1,12.29,12.29,0,0,1,5,1,12.59,12.59,0,0,1,4.09,2.77,13.14,13.14,0,0,1,3.74,9.19,12.12,12.12,0,0,1-1,4.91,12.86,12.86,0,0,1-11.8,7.73Zm0-7.21a4.55,4.55,0,0,0,1.94-.43,5.16,5.16,0,0,0,1.63-1.14A5.35,5.35,0,0,0,103,22.77a5.8,5.8,0,0,0,.41-2.24,6.24,6.24,0,0,0-.39-2.24A5.67,5.67,0,0,0,102,16.5a5.31,5.31,0,0,0-1.61-1.18,4.57,4.57,0,0,0-2-.43,4.65,4.65,0,0,0-2,.43,5,5,0,0,0-1.59,1.18,5.84,5.84,0,0,0-1.07,1.79,6.63,6.63,0,0,0,0,4.48,5.28,5.28,0,0,0,1.09,1.76,5,5,0,0,0,1.61,1.14,4.53,4.53,0,0,0,1.92.43Z"/><path class="cls-10" d="M98.38,33.31a12.47,12.47,0,0,1-4.88-1,13.1,13.1,0,0,1-4.08-2.73,13.5,13.5,0,0,1-2.8-4.06,12.43,12.43,0,0,1,0-10,13.42,13.42,0,0,1,2.8-4.07A13,13,0,0,1,93.5,8.71a12,12,0,0,1,4.88-1,12.29,12.29,0,0,1,5,1,12.59,12.59,0,0,1,4.09,2.77,13.14,13.14,0,0,1,3.74,9.19,12.12,12.12,0,0,1-1,4.91,12.86,12.86,0,0,1-11.8,7.73Zm0-7.21a4.55,4.55,0,0,0,1.94-.43,5.16,5.16,0,0,0,1.63-1.14A5.35,5.35,0,0,0,103,22.77a5.8,5.8,0,0,0,.41-2.24,6.24,6.24,0,0,0-.39-2.24A5.67,5.67,0,0,0,102,16.5a5.31,5.31,0,0,0-1.61-1.18,4.57,4.57,0,0,0-2-.43,4.65,4.65,0,0,0-2,.43,5,5,0,0,0-1.59,1.18,5.84,5.84,0,0,0-1.07,1.79,6.63,6.63,0,0,0,0,4.48,5.28,5.28,0,0,0,1.09,1.76,5,5,0,0,0,1.61,1.14,4.53,4.53,0,0,0,1.92.43Z"/><path class="cls-9" d="M122.72,32.72h-7.58V8.25H124a19,19,0,0,1,4,.42,10.11,10.11,0,0,1,3.32,1.38,6.76,6.76,0,0,1,2.24,2.48,7.54,7.54,0,0,1,.82,3.69,9,9,0,0,1-.5,2.93,4.64,4.64,0,0,1-1.74,2.39,5.26,5.26,0,0,1,1.94,2.53,12.09,12.09,0,0,1,.44,3.52v5.13h-7.76V27.59a3.61,3.61,0,0,0-.49-2.21,2.09,2.09,0,0,0-1.71-.6h-1.89V19.3h1.89a2.08,2.08,0,0,0,1.58-.49,2.11,2.11,0,0,0,.46-1.48,1.91,1.91,0,0,0-.51-1.48,3.31,3.31,0,0,0-2.11-.46h-1.32V32.72Z"/><path class="cls-10" d="M122.72,32.72h-7.58V8.25H124a19,19,0,0,1,4,.42,10.11,10.11,0,0,1,3.32,1.38,6.76,6.76,0,0,1,2.24,2.48,7.54,7.54,0,0,1,.82,3.69,9,9,0,0,1-.5,2.93,4.64,4.64,0,0,1-1.74,2.39,5.26,5.26,0,0,1,1.94,2.53,12.09,12.09,0,0,1,.44,3.52v5.13h-7.76V27.59a3.61,3.61,0,0,0-.49-2.21,2.09,2.09,0,0,0-1.71-.6h-1.89V19.3h1.89a2.08,2.08,0,0,0,1.58-.49,2.11,2.11,0,0,0,.46-1.48,1.91,1.91,0,0,0-.51-1.48,3.31,3.31,0,0,0-2.11-.46h-1.32V32.72Z"/><polygon class="cls-9" points="156.13 8.25 156.13 15.36 150.83 15.36 150.83 32.72 143.17 32.72 143.17 15.36 137.88 15.36 137.88 8.25 156.13 8.25 156.13 8.25"/><polygon class="cls-10" points="156.13 8.25 156.13 15.36 150.83 15.36 150.83 32.72 143.17 32.72 143.17 15.36 137.88 15.36 137.88 8.25 156.13 8.25 156.13 8.25"/><path class="cls-7" d="M59.25,8v7.29A9.21,9.21,0,0,0,58.1,15a4.29,4.29,0,0,0-1-.15,1.5,1.5,0,0,0-1.06.4,1.23,1.23,0,0,0-.43.93A4.84,4.84,0,0,0,56,18c.3.71.66,1.45,1,2.21a22.76,22.76,0,0,1,1,2.32,5.87,5.87,0,0,1,.47,2.18q0,4.15-2.24,6.31c-1.48,1.45-3.69,2.16-6.64,2.16a6.26,6.26,0,0,1-1-.09c-.36,0-.92-.15-1.66-.32V25.52a6.78,6.78,0,0,0,1.24.34,6.65,6.65,0,0,0,1.17.13,1.41,1.41,0,0,0,1.06-.39,1.24,1.24,0,0,0,.37-.9,4.25,4.25,0,0,0-.46-1.61l-1-2.19c-.36-.77-.7-1.59-1-2.44A7.07,7.07,0,0,1,48,16a8.56,8.56,0,0,1,2.12-6.25c1.42-1.43,3.5-2.15,6.27-2.15A11,11,0,0,1,59.25,8Z"/><path class="cls-7" d="M59.25,8v7.29A9.21,9.21,0,0,0,58.1,15a4.29,4.29,0,0,0-1-.15,1.5,1.5,0,0,0-1.06.4,1.23,1.23,0,0,0-.43.93A4.84,4.84,0,0,0,56,18c.3.71.66,1.45,1,2.21a22.76,22.76,0,0,1,1,2.32,5.87,5.87,0,0,1,.47,2.18q0,4.15-2.24,6.31c-1.48,1.45-3.69,2.16-6.64,2.16a6.26,6.26,0,0,1-1-.09c-.36,0-.92-.15-1.66-.32V25.52a6.78,6.78,0,0,0,1.24.34,6.65,6.65,0,0,0,1.17.13,1.41,1.41,0,0,0,1.06-.39,1.24,1.24,0,0,0,.37-.9,4.25,4.25,0,0,0-.46-1.61l-1-2.19c-.36-.77-.7-1.59-1-2.44A7.07,7.07,0,0,1,48,16a8.56,8.56,0,0,1,2.12-6.25c1.42-1.43,3.5-2.15,6.27-2.15A11,11,0,0,1,59.25,8Z"/><path class="cls-7" d="M59.25,8v7.29A9.21,9.21,0,0,0,58.1,15a4.29,4.29,0,0,0-1-.15,1.5,1.5,0,0,0-1.06.4,1.23,1.23,0,0,0-.43.93A4.84,4.84,0,0,0,56,18c.3.71.66,1.45,1,2.21a22.76,22.76,0,0,1,1,2.32,5.87,5.87,0,0,1,.47,2.18q0,4.15-2.24,6.31c-1.48,1.45-3.69,2.16-6.64,2.16a6.26,6.26,0,0,1-1-.09c-.36,0-.92-.15-1.66-.32V25.52a6.78,6.78,0,0,0,1.24.34,6.65,6.65,0,0,0,1.17.13,1.41,1.41,0,0,0,1.06-.39,1.24,1.24,0,0,0,.37-.9,4.25,4.25,0,0,0-.46-1.61l-1-2.19c-.36-.77-.7-1.59-1-2.44A7.07,7.07,0,0,1,48,16a8.56,8.56,0,0,1,2.12-6.25c1.42-1.43,3.5-2.15,6.27-2.15A11,11,0,0,1,59.25,8Z"/><path class="cls-7" d="M70.78,25.82v-7.1a10.3,10.3,0,0,0,2.87-.35,1.5,1.5,0,0,0,1-1.28A1.52,1.52,0,0,0,74,15.85a2.94,2.94,0,0,0-1.87-.49H70.81V32.72H63.16V8.25h9.11a14.22,14.22,0,0,1,4.13.57,9.49,9.49,0,0,1,3.25,1.65,7.71,7.71,0,0,1,2.17,2.71,8.22,8.22,0,0,1,.78,3.7q0,4.62-2.77,6.77C78,25.09,74.07,25.82,70.78,25.82Z"/><path class="cls-7" d="M70.78,25.82v-7.1a10.3,10.3,0,0,0,2.87-.35,1.5,1.5,0,0,0,1-1.28A1.52,1.52,0,0,0,74,15.85a2.94,2.94,0,0,0-1.87-.49H70.81V32.72H63.16V8.25h9.11a14.22,14.22,0,0,1,4.13.57,9.49,9.49,0,0,1,3.25,1.65,7.71,7.71,0,0,1,2.17,2.71,8.22,8.22,0,0,1,.78,3.7q0,4.62-2.77,6.77C78,25.09,74.07,25.82,70.78,25.82Z"/><path class="cls-7" d="M70.78,25.82v-7.1a10.3,10.3,0,0,0,2.87-.35,1.5,1.5,0,0,0,1-1.28A1.52,1.52,0,0,0,74,15.85a2.94,2.94,0,0,0-1.87-.49H70.81V32.72H63.16V8.25h9.11a14.22,14.22,0,0,1,4.13.57,9.49,9.49,0,0,1,3.25,1.65,7.71,7.71,0,0,1,2.17,2.71,8.22,8.22,0,0,1,.78,3.7q0,4.62-2.77,6.77C78,25.09,74.07,25.82,70.78,25.82Z"/><path class="cls-7" d="M98.38,33.31a12.47,12.47,0,0,1-4.88-1,13.1,13.1,0,0,1-4.08-2.73,13.5,13.5,0,0,1-2.8-4.06,12.43,12.43,0,0,1,0-10,13.42,13.42,0,0,1,2.8-4.07A13,13,0,0,1,93.5,8.71a12,12,0,0,1,4.88-1,12.29,12.29,0,0,1,5,1,12.59,12.59,0,0,1,4.09,2.77,13.14,13.14,0,0,1,3.74,9.19,12.12,12.12,0,0,1-1,4.91,12.86,12.86,0,0,1-11.8,7.73Zm0-7.21a4.55,4.55,0,0,0,1.94-.43,5.16,5.16,0,0,0,1.63-1.14A5.35,5.35,0,0,0,103,22.77a5.8,5.8,0,0,0,.41-2.24,6.24,6.24,0,0,0-.39-2.24A5.67,5.67,0,0,0,102,16.5a5.31,5.31,0,0,0-1.61-1.18,4.57,4.57,0,0,0-2-.43,4.65,4.65,0,0,0-2,.43,5,5,0,0,0-1.59,1.18,5.84,5.84,0,0,0-1.07,1.79,6.63,6.63,0,0,0,0,4.48,5.28,5.28,0,0,0,1.09,1.76,5,5,0,0,0,1.61,1.14,4.53,4.53,0,0,0,1.92.43Z"/><path class="cls-7" d="M98.38,33.31a12.47,12.47,0,0,1-4.88-1,13.1,13.1,0,0,1-4.08-2.73,13.5,13.5,0,0,1-2.8-4.06,12.43,12.43,0,0,1,0-10,13.42,13.42,0,0,1,2.8-4.07A13,13,0,0,1,93.5,8.71a12,12,0,0,1,4.88-1,12.29,12.29,0,0,1,5,1,12.59,12.59,0,0,1,4.09,2.77,13.14,13.14,0,0,1,3.74,9.19,12.12,12.12,0,0,1-1,4.91,12.86,12.86,0,0,1-11.8,7.73Zm0-7.21a4.55,4.55,0,0,0,1.94-.43,5.16,5.16,0,0,0,1.63-1.14A5.35,5.35,0,0,0,103,22.77a5.8,5.8,0,0,0,.41-2.24,6.24,6.24,0,0,0-.39-2.24A5.67,5.67,0,0,0,102,16.5a5.31,5.31,0,0,0-1.61-1.18,4.57,4.57,0,0,0-2-.43,4.65,4.65,0,0,0-2,.43,5,5,0,0,0-1.59,1.18,5.84,5.84,0,0,0-1.07,1.79,6.63,6.63,0,0,0,0,4.48,5.28,5.28,0,0,0,1.09,1.76,5,5,0,0,0,1.61,1.14,4.53,4.53,0,0,0,1.92.43Z"/><path class="cls-7" d="M98.38,33.31a12.47,12.47,0,0,1-4.88-1,13.1,13.1,0,0,1-4.08-2.73,13.5,13.5,0,0,1-2.8-4.06,12.43,12.43,0,0,1,0-10,13.42,13.42,0,0,1,2.8-4.07A13,13,0,0,1,93.5,8.71a12,12,0,0,1,4.88-1,12.29,12.29,0,0,1,5,1,12.59,12.59,0,0,1,4.09,2.77,13.14,13.14,0,0,1,3.74,9.19,12.12,12.12,0,0,1-1,4.91,12.86,12.86,0,0,1-11.8,7.73Zm0-7.21a4.55,4.55,0,0,0,1.94-.43,5.16,5.16,0,0,0,1.63-1.14A5.35,5.35,0,0,0,103,22.77a5.8,5.8,0,0,0,.41-2.24,6.24,6.24,0,0,0-.39-2.24A5.67,5.67,0,0,0,102,16.5a5.31,5.31,0,0,0-1.61-1.18,4.57,4.57,0,0,0-2-.43,4.65,4.65,0,0,0-2,.43,5,5,0,0,0-1.59,1.18,5.84,5.84,0,0,0-1.07,1.79,6.63,6.63,0,0,0,0,4.48,5.28,5.28,0,0,0,1.09,1.76,5,5,0,0,0,1.61,1.14,4.53,4.53,0,0,0,1.92.43Z"/><path class="cls-7" d="M122.72,32.72h-7.58V8.25H124a19,19,0,0,1,4,.42,10.11,10.11,0,0,1,3.32,1.38,6.76,6.76,0,0,1,2.24,2.48,7.54,7.54,0,0,1,.82,3.69,9,9,0,0,1-.5,2.93,4.64,4.64,0,0,1-1.74,2.39,5.26,5.26,0,0,1,1.94,2.53,12.09,12.09,0,0,1,.44,3.52v5.13h-7.76V27.59a3.61,3.61,0,0,0-.49-2.21,2.09,2.09,0,0,0-1.71-.6h-1.89V19.3h1.89a2.08,2.08,0,0,0,1.58-.49,2.11,2.11,0,0,0,.46-1.48,1.91,1.91,0,0,0-.51-1.48,3.31,3.31,0,0,0-2.11-.46h-1.32V32.72Z"/><path class="cls-7" d="M122.72,32.72h-7.58V8.25H124a19,19,0,0,1,4,.42,10.11,10.11,0,0,1,3.32,1.38,6.76,6.76,0,0,1,2.24,2.48,7.54,7.54,0,0,1,.82,3.69,9,9,0,0,1-.5,2.93,4.64,4.64,0,0,1-1.74,2.39,5.26,5.26,0,0,1,1.94,2.53,12.09,12.09,0,0,1,.44,3.52v5.13h-7.76V27.59a3.61,3.61,0,0,0-.49-2.21,2.09,2.09,0,0,0-1.71-.6h-1.89V19.3h1.89a2.08,2.08,0,0,0,1.58-.49,2.11,2.11,0,0,0,.46-1.48,1.91,1.91,0,0,0-.51-1.48,3.31,3.31,0,0,0-2.11-.46h-1.32V32.72Z"/><path class="cls-7" d="M122.72,32.72h-7.58V8.25H124a19,19,0,0,1,4,.42,10.11,10.11,0,0,1,3.32,1.38,6.76,6.76,0,0,1,2.24,2.48,7.54,7.54,0,0,1,.82,3.69,9,9,0,0,1-.5,2.93,4.64,4.64,0,0,1-1.74,2.39,5.26,5.26,0,0,1,1.94,2.53,12.09,12.09,0,0,1,.44,3.52v5.13h-7.76V27.59a3.61,3.61,0,0,0-.49-2.21,2.09,2.09,0,0,0-1.71-.6h-1.89V19.3h1.89a2.08,2.08,0,0,0,1.58-.49,2.11,2.11,0,0,0,.46-1.48,1.91,1.91,0,0,0-.51-1.48,3.31,3.31,0,0,0-2.11-.46h-1.32V32.72Z"/><polygon class="cls-7" points="156.13 8.25 156.13 15.36 150.83 15.36 150.83 32.72 143.17 32.72 143.17 15.36 137.88 15.36 137.88 8.25 156.13 8.25 156.13 8.25"/><polygon class="cls-7" points="156.13 8.25 156.13 15.36 150.83 15.36 150.83 32.72 143.17 32.72 143.17 15.36 137.88 15.36 137.88 8.25 156.13 8.25 156.13 8.25"/><polygon class="cls-7" points="156.13 8.25 156.13 15.36 150.83 15.36 150.83 32.72 143.17 32.72 143.17 15.36 137.88 15.36 137.88 8.25 156.13 8.25 156.13 8.25"/></svg>